# xmcd
#
# Track frame offsets:
#	150
#	16265
#	28272
#	50287
#	64882
#	81507
#	90912
#	109040
#	121067
#	135735
#	150445
#	168160
#	182257
#	195292
#	207887
#	228652
#	242160
#	254032
#
# Disc length: 3540 seconds
#
# Revision: 1
# Processed by: cddbd v1.5.2PL0 Copyright (c) Steve Scherf et al.
# Submitted via: EZCDAudioConverter 7.0.8.1
#
DISCID=e40dd212
DTITLE=이명희 - 21세기의명인(경기민요)
DYEAR=1999
DGENRE=민요
TTITLE0=노랫가락
TTITLE1=청춘가
TTITLE2=창부타령
TTITLE3=양산도
TTITLE4=방아타령
TTITLE5=잦은 방아타령
TTITLE6=아리랑-구아리랑
TTITLE7=담바귀타령
TTITLE8=태평가
TTITLE9=한오백년
TTITLE10=산염불-잦은염불
TTITLE11=오돌독
TTITLE12=개성난봉가
TTITLE13=한강수타령
TTITLE14=장기타령
TTITLE15=풍년가
TTITLE16=밀양아리랑
TTITLE17=매화타령
EXTD=
EXTT0=
EXTT1=
EXTT2=
EXTT3=
EXTT4=
EXTT5=
EXTT6=
EXTT7=
EXTT8=
EXTT9=
EXTT10=
EXTT11=
EXTT12=
EXTT13=
EXTT14=
EXTT15=
EXTT16=
EXTT17=
PLAYORDER=
